<!DOCTYPE svg PUBLIC "-//W3C//DTD SVG 20010904//EN" "http://www.w3.org/TR/2001/REC-SVG-20010904/DTD/svg10.dtd">
<svg version="1.0" xmlns="http://www.w3.org/2000/svg" width="559px" height="103px" viewBox="0 0 5590 1030" preserveAspectRatio="xMidYMid meet">
<g id="layer101" fill="#ffffff" stroke="none">
 <path d="M160 950 l0 -80 -80 0 -80 0 0 -435 0 -435 440 0 440 0 0 80 0 80 80 0 80 0 0 113 c0 101 2 116 20 132 15 14 17 21 9 31 -6 8 -15 11 -20 8 -19 -11 -8 51 12 72 22 23 17 49 -7 40 -23 -9 -17 45 8 71 l22 24 -22 6 c-26 6 -31 53 -7 73 19 16 19 40 0 40 -21 0 -19 49 2 73 17 18 17 19 0 32 -22 16 -22 53 0 78 17 18 17 19 0 32 -9 6 -17 20 -17 29 0 15 -39 16 -440 16 l-440 0 0 -80z m720 -103 c0 -13 -13 -36 -30 -52 -23 -22 -27 -31 -18 -42 9 -11 14 -11 29 3 18 16 19 16 19 -13 0 -19 -10 -39 -30 -58 -23 -22 -27 -31 -18 -42 9 -11 14 -11 29 3 18 16 19 16 19 -13 0 -19 -9 -38 -25 -53 -27 -25 -33 -50 -12 -50 7 0 18 5 25 12 9 9 12 6 12 -17 0 -18 -10 -40 -26 -56 -17 -18 -24 -34 -20 -45 6 -16 8 -15 26 1 19 18 20 17 20 -10 0 -18 -11 -40 -27 -57 -20 -21 -24 -31 -15 -40 8 -8 15 -8 27 2 29 24 18 -41 -12 -72 -20 -21 -24 -31 -15 -40 8 -8 15 -8 27 2 13 11 15 9 15 -12 0 -23 -4 -25 -51 -26 -50 -1 -51 0 -34 18 17 18 15 50 -3 50 -4 0 -23 -16 -42 -35 -21 -22 -43 -35 -59 -35 -24 0 -22 3 24 50 39 39 47 52 37 62 -10 10 -26 -1 -75 -50 -48 -48 -69 -62 -92 -62 -29 0 -28 2 43 73 39 40 72 78 72 85 0 27 -30 8 -110 -73 -69 -69 -90 -85 -115 -85 -28 0 -25 5 75 105 83 83 102 107 92 117 -10 10 -37 -12 -130 -105 -97 -97 -122 -117 -147 -117 -28 0 -22 8 99 129 114 114 128 132 116 146 -12 14 -30 0 -159 -129 -110 -109 -152 -146 -171 -146 -21 0 1 26 133 158 141 141 156 160 142 172 -14 12 -37 -7 -191 -161 l-174 -174 0 353 0 352 360 0 360 0 0 -23z"/>
 <path d="M1546 856 c-15 -14 -26 -33 -26 -43 0 -13 -3 -14 -11 -6 -9 9 -8 18 5 37 16 25 16 26 -7 26 -15 0 -29 -9 -37 -25 -7 -14 -17 -25 -22 -25 -4 0 -8 11 -8 25 0 16 -6 25 -15 25 -12 0 -15 -14 -15 -66 l0 -65 47 3 c39 2 50 7 60 28 9 18 13 20 13 8 0 -37 75 -51 103 -20 20 22 22 71 5 95 -7 9 -25 19 -40 22 -21 5 -33 1 -52 -19z m68 -29 c14 -22 -4 -52 -30 -52 -23 0 -31 39 -13 61 14 17 28 14 43 -9z m-134 -47 c0 -5 -9 -10 -20 -10 -11 0 -20 5 -20 10 0 6 9 10 20 10 11 0 20 -4 20 -10z"/>
 <path d="M1808 869 c-24 -13 -26 -129 -4 -129 11 0 16 15 18 53 2 38 7 52 18 52 11 0 16 -14 18 -52 3 -46 6 -53 24 -53 19 0 20 4 15 57 -8 75 -40 101 -89 72z"/>
 <path d="M1943 865 c-44 -31 -36 -109 12 -121 15 -4 37 -2 51 5 15 6 24 7 24 1 0 -6 25 -10 55 -10 42 0 55 3 55 15 0 8 -9 15 -20 15 -17 0 -20 7 -20 50 0 38 -4 50 -15 50 -11 0 -15 -12 -15 -50 0 -41 -3 -50 -18 -50 -10 0 -23 5 -30 12 -8 8 -15 8 -26 -2 -24 -19 -46 -5 -46 29 0 35 18 44 43 23 14 -12 20 -13 30 -3 9 10 7 16 -12 32 -28 23 -40 24 -68 4z"/>
 <path d="M2159 861 c-19 -16 -21 -22 -12 -32 10 -10 17 -9 33 6 15 14 23 16 32 7 8 -8 7 -13 -8 -17 -37 -12 -49 -22 -52 -45 -4 -27 12 -40 50 -40 31 0 59 37 38 50 -9 5 -9 9 -1 14 22 14 12 56 -15 66 -34 13 -38 13 -65 -9z"/>
 <path d="M2328 873 c-23 -6 -33 -40 -17 -59 7 -9 13 -28 14 -42 0 -21 5 -28 26 -30 34 -4 54 20 39 47 -9 18 -8 21 11 21 14 0 19 5 16 15 -4 8 -1 17 4 21 28 17 -46 38 -93 27z"/>
 <path d="M2729 861 c-30 -24 -32 -87 -4 -107 24 -18 56 -18 81 0 15 12 16 17 7 27 -10 10 -15 9 -27 -1 -24 -19 -46 -5 -46 29 0 35 18 44 43 23 14 -12 20 -13 30 -3 9 10 7 16 -12 32 -29 24 -43 24 -72 0z"/>
 <path d="M3094 855 c-21 -21 -25 -32 -20 -58 16 -82 126 -74 126 9 0 38 -17 61 -52 69 -21 5 -33 1 -54 -20z m70 -28 c14 -22 -4 -52 -30 -52 -23 0 -31 39 -13 61 14 17 28 14 43 -9z"/>
 <path d="M3334 855 c-21 -21 -25 -32 -20 -58 16 -82 126 -74 126 9 0 38 -17 61 -52 69 -21 5 -33 1 -54 -20z m70 -28 c14 -22 -4 -52 -30 -52 -23 0 -31 39 -13 61 14 17 28 14 43 -9z"/>
 <path d="M3492 870 c-51 -21 -48 -113 4 -126 32 -8 70 2 78 21 7 19 -23 33 -34 15 -13 -21 -45 -7 -48 21 -4 33 20 55 45 40 17 -10 17 -10 1 -11 -10 0 -18 -7 -18 -15 0 -10 10 -15 30 -15 27 0 30 3 30 30 0 24 -6 33 -26 40 -30 12 -32 12 -62 0z"/>
 <path d="M1290 805 l0 -65 39 0 c44 0 64 18 59 52 -2 16 -13 26 -35 33 -22 6 -33 15 -33 27 0 10 -7 18 -15 18 -12 0 -15 -14 -15 -65z m63 -20 c1 -5 -6 -11 -15 -13 -11 -2 -18 3 -18 13 0 17 30 18 33 0z"/>
 <path d="M1670 805 l0 -65 38 0 c46 0 72 24 72 64 0 50 -16 66 -65 66 l-45 0 0 -65z m64 29 c19 -19 20 -36 4 -52 -24 -24 -38 -13 -38 28 0 43 9 49 34 24z"/>
 <path d="M2520 820 c0 -43 -3 -50 -20 -50 -11 0 -20 -7 -20 -15 0 -12 18 -15 105 -15 87 0 105 3 105 15 0 10 -11 15 -35 15 -19 0 -35 5 -35 10 0 6 14 10 30 10 20 0 30 5 30 15 0 10 -10 15 -30 15 -20 0 -30 5 -30 15 0 10 11 15 35 15 19 0 35 5 35 10 0 6 -22 10 -50 10 l-50 0 0 -50 c0 -43 -3 -50 -20 -50 -17 0 -20 7 -20 50 0 38 -4 50 -15 50 -11 0 -15 -12 -15 -50z"/>
 <path d="M2830 805 c0 -51 3 -65 15 -65 9 0 15 9 15 25 0 18 5 25 20 25 15 0 20 -7 20 -25 0 -18 5 -25 20 -25 18 0 20 7 20 65 0 58 -2 65 -20 65 -15 0 -20 -7 -20 -25 0 -18 -5 -25 -20 -25 -15 0 -20 7 -20 25 0 16 -6 25 -15 25 -12 0 -15 -14 -15 -65z"/>
 <path d="M2960 805 c0 -75 15 -85 49 -32 l21 32 0 -32 c0 -23 5 -33 15 -33 12 0 15 14 15 65 0 76 -17 87 -50 33 l-20 -33 0 33 c0 22 -5 32 -15 32 -12 0 -15 -14 -15 -65z"/>
 <path d="M3220 805 c0 -51 3 -65 15 -65 12 0 15 13 15 55 0 54 0 55 30 55 17 0 30 5 30 10 0 6 -20 10 -45 10 l-45 0 0 -65z"/>
 <path d="M3620 845 c0 -13 -9 -39 -20 -57 -11 -18 -20 -36 -20 -40 0 -16 30 -7 44 13 l14 21 14 -21 c7 -11 21 -21 30 -21 23 0 23 4 -7 48 -14 20 -25 47 -25 59 0 14 -6 23 -15 23 -9 0 -15 -9 -15 -25z"/>
 <path d="M2355 536 c-43 -19 -75 -58 -82 -100 l-6 -36 47 0 c34 0 46 4 46 15 0 29 38 55 80 55 38 0 80 -26 80 -48 0 -19 -38 -40 -103 -57 -77 -20 -109 -41 -127 -84 -25 -60 7 -125 73 -150 42 -16 124 -13 163 5 36 17 50 36 64 85 9 29 9 29 -38 29 -39 0 -49 -4 -57 -22 -18 -39 -96 -42 -119 -6 -15 25 -1 35 84 59 90 25 125 48 140 95 24 72 -20 154 -91 168 -51 10 -122 6 -154 -8z"/>
 <path d="M2765 536 c-77 -35 -110 -94 -110 -201 0 -69 4 -86 27 -127 35 -58 92 -88 169 -88 104 1 178 57 198 150 14 63 14 67 0 130 -20 94 -94 150 -199 149 -30 0 -68 -6 -85 -13z m157 -95 c28 -24 32 -36 36 -90 5 -73 -10 -116 -49 -136 -114 -60 -202 59 -147 198 24 60 107 75 160 28z"/>
 <path d="M3530 532 c-60 -30 -70 -64 -70 -244 l0 -158 45 0 45 0 0 150 c0 137 2 152 20 170 13 13 33 20 59 20 64 0 71 -18 71 -192 l0 -148 45 0 45 0 0 158 c0 129 -3 163 -18 192 -23 47 -72 70 -147 70 -37 0 -73 -7 -95 -18z"/>
 <path d="M4485 536 c-77 -35 -110 -94 -110 -201 0 -69 4 -86 27 -127 35 -58 92 -88 169 -88 104 1 178 57 198 150 14 63 14 67 0 130 -20 94 -94 150 -199 149 -30 0 -68 -6 -85 -13z m157 -95 c28 -24 32 -36 36 -90 5 -73 -10 -116 -49 -136 -114 -60 -202 59 -147 198 24 60 107 75 160 28z"/>
 <path d="M5315 536 c-43 -19 -75 -58 -82 -100 l-6 -36 47 0 c34 0 46 4 46 15 0 29 38 55 80 55 38 0 80 -26 80 -48 0 -19 -38 -40 -103 -57 -77 -20 -109 -41 -127 -84 -25 -60 7 -125 73 -150 42 -16 124 -13 163 5 36 17 50 36 64 85 9 29 9 29 -38 29 -39 0 -49 -4 -57 -22 -18 -39 -96 -42 -119 -6 -15 25 -1 35 84 59 90 25 125 48 140 95 24 72 -20 154 -91 168 -51 10 -122 6 -154 -8z"/>
 <path d="M1300 335 l0 -205 65 0 64 0 10 38 c37 138 60 216 61 212 1 -3 16 -59 33 -125 l32 -120 68 -3 67 -3 0 206 0 205 -40 0 -40 0 -1 -147 -1 -148 -37 145 -37 145 -46 3 -46 3 -35 -143 -35 -143 -1 143 -1 142 -40 0 -40 0 0 -205z"/>
 <path d="M1870 370 l0 -170 -60 0 -60 0 0 -35 0 -35 165 0 165 0 0 35 0 35 -60 0 -60 0 0 170 0 170 -45 0 -45 0 0 -170z"/>
 <path d="M3110 335 l0 -205 45 0 45 0 0 170 0 170 105 0 105 0 0 35 0 35 -150 0 -150 0 0 -205z"/>
 <path d="M3970 370 l0 -170 -60 0 -60 0 0 -35 0 -35 165 0 165 0 0 35 0 35 -60 0 -60 0 0 170 0 170 -45 0 -45 0 0 -170z"/>
 <path d="M4230 335 l0 -205 45 0 45 0 0 205 0 205 -45 0 -45 0 0 -205z"/>
 <path d="M4830 335 l0 -205 44 0 44 0 81 132 81 133 0 -133 0 -132 40 0 40 0 0 206 0 205 -47 -3 -48 -3 -75 -122 -75 -122 -3 124 -3 125 -39 0 -40 0 0 -205z"/>
 <path d="M2080 390 l0 -40 80 0 80 0 0 40 0 40 -80 0 -80 0 0 -40z"/>
 </g>

</svg>