<?xml version="1.0" encoding="utf-8"?>
<!-- Generator: Adobe Illustrator 15.0.2, SVG Export Plug-In  -->
<!DOCTYPE svg PUBLIC "-//W3C//DTD SVG 1.1//EN" "http://www.w3.org/Graphics/SVG/1.1/DTD/svg11.dtd" [
	<!ENTITY ns_flows "http://ns.adobe.com/Flows/1.0/">
]>
<svg version="1.1"
	 xmlns="http://www.w3.org/2000/svg" xmlns:xlink="http://www.w3.org/1999/xlink" xmlns:a="http://ns.adobe.com/AdobeSVGViewerExtensions/3.0/"
	 x="0px" y="0px" width="90px" height="64px" viewBox="62.232 45.519 90 64"
	 overflow="visible" enable-background="new 62.232 45.519 90 64" xml:space="preserve">
<defs>
</defs>
<g>
	<defs>
		<rect id="SVGID_1_" width="214.525" height="151.686"/>
	</defs>
	<clipPath id="SVGID_2_">
		<use xlink:href="#SVGID_1_"  overflow="visible"/>
	</clipPath>
	<g id="g3016_1_" clip-path="url(#SVGID_2_)">
		<g id="g3022_1_" transform="translate(349.5215,287.5674)">
			<path id="path3024_1_" fill="#008F6A" d="M-260.458-209.158c-3.7-3.448-6.014-8.364-6.014-13.821
				c0-10.433,8.459-18.893,18.892-18.893c10.433,0,18.893,8.459,18.893,18.893c0,1.92-0.288,3.775-0.821,5.522l-4.98-9.576
				c-0.984-2.009-1.683-3.077-2.542-4.306c-1.642-2.255-3.444-3.239-5.905-3.239c-3.404,0-5.618,1.968-8.366,7.298L-260.458-209.158
				z M-243.597-226.028c0,0,0.356-0.433,0.472-0.433c0.153,0,0.463,0.433,0.463,0.433l8.711,16.133
				c-3.438,3.579-8.272,5.807-13.629,5.807c-2.264,0-4.435-0.398-6.446-1.129L-243.597-226.028z M-254.026-205.217
				c0,0,10.282-20.511,10.429-20.811c0.17-0.345,0.294-0.433,0.472-0.433 M-243.125-226.461c0.165,0,0.3,0.139,0.463,0.433
				c0.126,0.23,8.711,16.133,8.711,16.133"/>
		</g>
		<g id="g3026_1_" transform="translate(276.4199,184.5947)">
			<path id="path3028_1_" fill="#FFFFFF" d="M-205.984-79.946c-0.022-0.633-0.09-1.241-0.09-1.852h-0.044
				c-0.925,1.469-2.056,2.123-3.728,2.123c-2.326,0-4.403-1.151-4.403-3.703c0-3.592,3.907-4.021,6.075-4.021
				c0.655,0,1.377,0.067,1.896,0.158c-0.022-1.604-1.218-2.032-2.686-2.032c-1.311,0-2.621,0.247-3.75,0.88l-0.067-2.754
				c1.445-0.587,2.959-0.834,4.698-0.834c3.002,0,5.599,1.283,5.599,4.876v4.381c0,0.926,0.045,1.853,0.227,2.777H-205.984z
				 M-208.784-82.385c1.534,0,2.505-1.4,2.505-2.779c-0.519-0.021-1.106-0.068-1.716-0.068c-1.376,0-2.461,0.432-2.461,1.561
				C-210.456-82.859-209.733-82.385-208.784-82.385"/>
		</g>
		<g id="g3030_1_" transform="translate(303.8926,197.3564)">
			<path id="path3032_1_" fill="#FFFFFF" d="M-226.457-95.96c0.949,0.407,2.349,0.813,3.816,0.813c0.836,0,1.648-0.135,1.648-0.949
				c0-1.986-5.781-0.586-5.781-4.831c0-2.711,2.665-3.817,5.013-3.817c1.4,0,2.823,0.158,4.133,0.677l-0.316,2.825
				c-0.858-0.521-2.146-0.792-3.162-0.792c-0.88,0-1.874,0.157-1.874,0.812c0,1.828,6.052,0.385,6.052,4.857
				c0,3.14-2.823,3.927-5.488,3.927c-1.829,0-3.07-0.177-4.268-0.563L-226.457-95.96z"/>
		</g>
		<g id="g3034_1_" transform="translate(349.4551,230.7666)">
			<path id="path3036_1_" fill="#FFFFFF" d="M-260.409-137.884h2.395v-2.641l3.997-1.242v3.883h2.846v2.846h-2.846v4.335
				c0,1.424,0.339,2.146,1.626,2.146c0.406,0,0.835-0.093,1.242-0.159l0.135,2.643c-0.768,0.09-1.536,0.227-2.552,0.227
				c-3.636,0-4.516-1.604-4.516-4.404v-4.787h-2.327V-137.884z"/>
		</g>
		<g id="g3038_1_" transform="translate(430.2734,218.0088)">
			<path id="path3040_1_" fill="#FFFFFF" d="M-320.634-121.875c-0.45-0.136-0.901-0.136-1.378-0.136
				c-1.897,0-2.958,1.38-2.958,3.683v4.968h-4.064v-11.766h3.702v2.168h0.046c0.701-1.49,1.716-2.437,3.479-2.437
				c0.475,0,0.972,0.065,1.375,0.136L-320.634-121.875z"/>
		</g>
		<g id="g3042_1_" transform="translate(490.2695,184.5947)">
			<path id="path3044_1_" fill="#FFFFFF" d="M-365.342-79.946h-3.703v-2.169h-0.047c-0.812,1.695-2.438,2.44-4.291,2.44
				c-3.206,0-4.492-2.261-4.492-4.698v-7.337h4.066v5.691c0,2.211,0.766,2.955,1.872,2.955c1.671,0,2.531-1.151,2.531-3.68v-4.967
				h4.063V-79.946z"/>
		</g>
		<g id="g3046_1_" transform="translate(504.2852,230.7666)">
			<path id="path3048_1_" fill="#FFFFFF" d="M-375.787-137.884h3.749v2.123h0.046c0.814-1.647,2.531-2.394,4.382-2.394
				c3.251,0,5.035,3.093,5.035,5.94c0,3.476-1.876,6.367-5.374,6.367c-1.423,0-2.962-0.521-3.725-1.921h-0.049v6.392h-4.064
				V-137.884z M-369.238-135.038c-1.488,0-2.484,1.309-2.484,3.071c0,1.716,1.13,3.002,2.484,3.002c1.537,0,2.461-1.286,2.461-3.158
				C-366.777-133.684-367.659-135.038-369.238-135.038"/>
		</g>
		<g id="g3050_1_" transform="translate(579.6484,248.7393)">
			<path id="path3052_1_" fill="#FFFFFF" d="M-431.944-160.435c2.305,0,4.021,1.811,4.021,4.044c0,2.259-1.717,4.072-4.046,4.072
				c-2.328,0-4.07-1.813-4.07-4.072c0-2.233,1.742-4.044,4.07-4.044H-431.944z M-432.015-159.424c-1.648,0-2.896,1.341-2.896,3.06
				c0,1.667,1.247,3.035,2.941,3.035c1.693,0.022,2.939-1.368,2.939-3.062c0-1.692-1.246-3.033-2.962-3.033H-432.015z
				 M-432.486-154.46h-1.153v-3.74c0.26-0.048,0.871-0.142,1.648-0.142c0.845,0,1.224,0.118,1.506,0.304
				c0.232,0.167,0.398,0.449,0.398,0.826c0,0.376-0.354,0.705-0.871,0.848v0.048c0.423,0.115,0.659,0.42,0.777,0.965
				c0.117,0.539,0.188,0.751,0.258,0.892h-1.292c-0.119-0.141-0.188-0.469-0.261-0.8c-0.07-0.377-0.26-0.564-0.636-0.564h-0.375
				V-154.46z M-432.441-156.602h0.33c0.426,0,0.708-0.187,0.708-0.447c0-0.305-0.259-0.47-0.661-0.47
				c-0.141,0-0.281,0.023-0.377,0.023V-156.602z"/>
		</g>
	</g>
</g>
</svg>
