<?xml version="1.0" encoding="utf-8"?>
<!-- Generator: Adobe Illustrator 25.2.0, SVG Export Plug-In . SVG Version: 6.00 Build 0)  -->
<svg version="1.1" id="Layer_1" xmlns="http://www.w3.org/2000/svg" xmlns:xlink="http://www.w3.org/1999/xlink" x="0px" y="0px"
	 viewBox="0 0 595.28 841.89" style="enable-background:new 0 0 595.28 841.89;" xml:space="preserve">
<style type="text/css">
	.st0{stroke:#000000;stroke-miterlimit:10;}
	.st1{fill:#FFFFFF;}
</style>
<rect class="st0" width="595.28" height="841.89"/>
<g>
	<path class="st1" d="M152.98,459.64c1.85-4.32,3.79-8.6,5.52-12.97c3.46-8.72,6.79-17.5,10.2-26.24
		c2.96-7.59,5.95-15.16,8.83-22.51c12.22,0,24.33,0,37.25,0c-4.6,12.77-9,24.95-13.38,37.13c-7.02,0-13.92,0-21.31,0
		c0.82-2.51,1.49-4.83,2.33-7.06c1.6-4.27,3.37-8.48,4.93-12.77c0.63-1.74,1.45-2.72,3.3-2.41c0.74,0.13,1.52,0.02,2.28,0.02
		c4.91,0,4.91,0,5.88-5.62c-3.72,0-7.39,0-11.49,0c-1.55,4.09-3.24,8.58-4.96,13.05c-3.86,9.98-7.73,19.96-11.6,29.94
		c-1.36,3.51-2.73,7.03-4.09,10.54c-4.14,0-8.28,0-12.42,0C153.57,460.73,152.66,461,152.98,459.64z"/>
	<path class="st1" d="M253.83,460.73c3.89-9.59,7.78-19.17,11.67-28.76c2.97-7.32,5.93-14.64,8.9-21.95
		c1.42-3.5,2.82-7.01,4.35-10.45c0.28-0.64,1.16-1.37,1.76-1.38c11.47-0.08,22.94-0.06,34.93-0.06c-1.08,3.28-2.01,6.24-3.04,9.16
		c-2.95,8.36-5.97,16.69-8.91,25.06c-0.67,1.92-1.48,2.96-3.73,2.87c-6.14-0.23-12.28-0.08-18.83-0.08c1.37-3.7,2.59-7.06,3.85-10.4
		c1.21-3.2,2.33-6.46,3.74-9.55c0.39-0.86,1.64-1.45,2.61-1.76c0.93-0.3,2.01-0.06,3.02-0.06c4.17,0,5.45-1.38,5.72-6.53
		c-3.51,0-7.02-0.09-10.52,0.09c-0.59,0.03-1.37,1.11-1.66,1.88c-2.55,6.63-4.99,13.31-7.51,19.96
		c-4.04,10.66-8.11,21.31-12.17,31.97C263.29,460.73,258.56,460.73,253.83,460.73z"/>
	<path class="st1" d="M443.37,399.76c-1.18,2.79-2.52,5.52-3.48,8.4c-0.53,1.58-1.22,2.04-2.68,1.98c-2.61-0.11-5.24-0.15-7.84,0.04
		c-0.76,0.05-1.85,0.82-2.12,1.54c-2.66,7.25-5.16,14.56-7.73,21.84c-0.54,1.53-1.13,2.59-3.13,1.87c-1.53-0.55-3.33-0.25-5.01-0.27
		c-2.1-0.03-4.2-0.01-6.82-0.01c3.06-8.44,5.99-16.55,9.04-24.96c-3.32,0-6.4,0-9.95,0c0.91-2.63,1.65-4.9,2.49-7.14
		c1.86-4.93,1.88-4.92,6.87-4.92c10.13,0,20.26,0,30.38,0C443.37,398.67,443.37,399.21,443.37,399.76z"/>
	<path class="st1" d="M376.47,380.7c-0.98,2.99-1.93,5.98-2.96,8.94c-0.13,0.37-0.69,0.81-1.06,0.81
		c-4.04,0.05-8.07,0.04-12.11-0.01c-0.35,0-0.69-0.43-1.16-0.74c1.21-3.03,2.41-6.02,3.61-9C367.35,380.7,371.91,380.7,376.47,380.7
		z"/>
	<path class="st1" d="M339.36,407.48c-4.77,0-8.97,0-13.45,0c-0.57,1.58-1.18,3.27-1.91,5.28c3.32,0,6.24,0,9.62,0
		c-2.08,5.47-4.03,10.6-5.98,15.72c-0.09,0.25-0.29,0.47-0.32,0.72c-0.78,5.53-4,6.54-8.66,6.04c-4.25-0.46-8.58-0.1-13.38-0.1
		c1.11-3.33,2.08-6.37,3.13-9.38c2.91-8.37,5.8-16.76,8.83-25.08c0.37-1.02,1.51-2.43,2.3-2.44c11.29-0.16,22.59-0.11,34.6-0.11
		c-4.72,12.57-9.28,24.72-13.86,36.94c-3.56,0-7.1,0-11.04,0C332.6,425.9,335.9,416.92,339.36,407.48z"/>
	<path class="st1" d="M359.14,435.14c4.52-12.13,8.88-23.87,13.33-35.58c0.25-0.66,1.28-1.37,1.96-1.38
		c9.11-0.09,18.22-0.05,27.33-0.07c1.79,0,2.89,0.89,2.53,2.76c-0.56,2.93-1.24,5.86-2.25,8.64c-3.1,8.56-6.38,17.05-9.59,25.55
		c-5.34,0-10.56,0-16.06,0c3.23-9.26,6.39-18.35,9.75-27.97c-1.49-0.12-2.83-0.23-4.43-0.36c-1.76,4.72-3.5,9.38-5.25,14.04
		c-1.6,4.27-3.17,8.55-4.9,12.77c-0.29,0.71-1.27,1.5-1.96,1.53C366.25,435.23,362.88,435.14,359.14,435.14z"/>
	<path class="st1" d="M262.13,435.14c-7.09,0-14.02,0.03-20.94-0.02c-2.59-0.02-4.42-2.17-4.6-4.96c-0.35-5.3,1.67-9.9,3.52-14.58
		c2.06-5.22,4.11-10.45,6.07-15.72c0.52-1.39,1.23-1.8,2.6-1.78c6.75,0.08,13.51,0.17,20.27-0.01c5.24-0.14,6.05,2.33,4.62,7.21
		c-1.58,5.39-3.9,10.53-5.94,15.76C265.9,425.71,264.03,430.34,262.13,435.14z M250.17,421.89c4.42,0.41,4.41,0.41,5.85-3.45
		c0.12-0.33,0.3-0.64,0.41-0.97c1.23-3.61,2.46-7.22,3.77-11.08c-1.7,0-2.94,0-4.32,0C254,411.5,252.13,416.58,250.17,421.89z"/>
	<path class="st1" d="M244.16,398.01c-1.97,4.87-3.67,9.16-5.47,13.4c-0.19,0.45-1.01,0.81-1.55,0.83c-2.95,0.08-5.9,0.04-9.08,0.04
		c0.58-1.95,1.1-3.74,1.64-5.54c-3.92-1-4.28-0.71-5.74,3.33c-3.02,8.34-6.11,16.64-9.17,24.97c-3.58,0-7.02,0-10.83,0
		c4.52-12.59,8.95-24.95,13.29-37.03C226.19,398.01,234.89,398.01,244.16,398.01z"/>
	<path class="st1" d="M356.94,435.06c-4.61,0-9.15,0-14.1,0c1.22-3.38,2.3-6.57,3.5-9.71c3.25-8.51,6.53-17.02,9.89-25.49
		c0.29-0.74,1.28-1.63,1.96-1.66c3.95-0.16,7.91-0.08,12.63-0.08C366.1,410.7,361.52,422.87,356.94,435.06z"/>
</g>
</svg>
