<svg id="Layer_1" data-name="Layer 1" xmlns="http://www.w3.org/2000/svg" viewBox="0 0 596.28 842.89"><defs><style>.cls-1{fill:#231f20;stroke:#231f20;stroke-miterlimit:10;}.cls-2{fill:#fff;}.cls-2,.cls-3{fill-rule:evenodd;}</style></defs><rect class="cls-1" x="0.5" y="0.5" width="595.28" height="841.89"/><path class="cls-2" d="M274.41,404.66a6,6,0,0,0-6.71,3l-5.76,10.76-5.77-10.76a6,6,0,0,0-11.2,2.81V431a5.95,5.95,0,0,0,11.44,2.29l.28.52a6,6,0,0,0,10.49,0l.29-.52A5.95,5.95,0,0,0,278.91,431V410.44A5.94,5.94,0,0,0,274.41,404.66ZM237.2,425.12a5.9,5.9,0,0,0,0-8.8,5.94,5.94,0,0,0-.75-11.84H223.39a6,6,0,0,0-5.95,6V431a6,6,0,0,0,5.95,5.95h13.06a5.94,5.94,0,0,0,.75-11.83Zm-23.56,2.44-2.74-4.08a11.05,11.05,0,0,0-7.72-19h-8.71a6,6,0,0,0-6,6v20.44a6,6,0,1,0,11.91,0v-1.63l3.34,4.95a5.93,5.93,0,0,0,8.26,1.62,5.83,5.83,0,0,0,2.64-4.95A5.93,5.93,0,0,0,213.64,427.56Zm112.79-23.08h-3.68a6,6,0,0,0-2.27,11.46V431a5.95,5.95,0,1,0,11.9,0V410.44a6,6,0,0,0-5.95-6Zm-30,28.55a6,6,0,0,0,11,.48,5.89,5.89,0,0,0,.2-4.55l-7.48-20.56a6,6,0,0,0-11.19,0h0L281.46,429a5.82,5.82,0,0,0,.2,4.54,5.88,5.88,0,0,0,3.35,3.09,6,6,0,0,0,7.63-3.56l.28-.76h3.22l.28.76Zm50.18-28.55a11.12,11.12,0,0,0-11.11,11.11v10.14a11.11,11.11,0,1,0,22.21,0V415.59A11.12,11.12,0,0,0,346.6,404.48Zm24.9,0a11.13,11.13,0,0,0-11.11,11.11v10.14a11.11,11.11,0,1,0,22.22,0V415.59A11.12,11.12,0,0,0,371.5,404.48Zm24.91,0a11.13,11.13,0,0,0-11.11,11.11v10.14a11.11,11.11,0,1,0,22.22,0V415.59A11.13,11.13,0,0,0,396.41,404.48Z" transform="translate(0.5 0.5)"/><path class="cls-3" d="M271,409.26l-8.56,16.87-8.56-16.87a2.73,2.73,0,0,0-3.14-1.47,2.93,2.93,0,0,0-2.11,2.86v21.73a2.87,2.87,0,0,0,2.79,2.95h0a2.87,2.87,0,0,0,2.79-2.95v-10L260,433.77a2.72,2.72,0,0,0,4.92,0l5.77-11.37v10a2.79,2.79,0,1,0,5.58,0V410.65a2.92,2.92,0,0,0-2.12-2.86,2.72,2.72,0,0,0-3.13,1.47Zm-34,20.17H226.69v-5h7a2.86,2.86,0,0,0,2.89-2.84,2.89,2.89,0,0,0-2.69-3.05h-7.24v-5H237a3,3,0,0,0,0-5.9H223.9a2.87,2.87,0,0,0-2.79,2.95v21.73a2.87,2.87,0,0,0,2.79,2.95H237a3,3,0,0,0,0-5.9Zm-25.43,1.24-4.45-7a8.41,8.41,0,0,0,4.53-7.56,8.16,8.16,0,0,0-7.93-8.38H195a2.87,2.87,0,0,0-2.79,2.95v21.61a2.87,2.87,0,0,0,2.78,2.95h0a2.87,2.87,0,0,0,2.79-2.95h0v-7.8h3.11l6,9.44a2.72,2.72,0,0,0,3.88.81,3.09,3.09,0,0,0,.76-4.1Zm-9.13-12h-5.91v-5h5.91a2.49,2.49,0,0,1,0,5Zm124-11.75h-3.67a3,3,0,0,0,0,5.9h.88v18.78a2.8,2.8,0,1,0,5.59,0V409.85A2.88,2.88,0,0,0,326.42,406.9Zm-21.81,24.47-7.48-21.73a2.74,2.74,0,0,0-5.24,0l-7.49,21.73a3,3,0,0,0,1.67,3.78,2.76,2.76,0,0,0,3.58-1.76l1-3h7.65l1,3a2.76,2.76,0,0,0,3.57,1.76,3,3,0,0,0,1.68-3.77Zm-11.9-7.26,1.8-5.2,1.8,5.2ZM338.45,415v10.71a8,8,0,1,0,15.89,0V415a8,8,0,1,0-15.89,0ZM344,425.68V415a2.37,2.37,0,1,1,4.73,0v10.71a2.37,2.37,0,1,1-4.73,0ZM363,415.42v10.71a8,8,0,1,0,15.89,0V415.42a8,8,0,1,0-15.89,0Zm5.58,10.29V415a2.37,2.37,0,1,1,4.73,0v10.71a2.37,2.37,0,1,1-4.73,0Zm19.7-10.55v10.39a7.94,7.94,0,1,0,15.88,0V415.16a7.94,7.94,0,1,0-15.88,0ZM394,425.71V415a2.37,2.37,0,1,1,4.73,0v10.71a2.37,2.37,0,1,1-4.73,0Z" transform="translate(0.5 0.5)"/></svg>